<svg width="22" height="23" viewBox="0 0 22 23" fill="none" xmlns="http://www.w3.org/2000/svg">
<path d="M21.9021 16.8611C21.1407 16.0998 20.1285 15.6804 19.0518 15.6804C18.0908 15.6804 17.1812 16.0144 16.4556 16.6274C14.8735 15.2938 12.4987 15.3717 11.0093 16.8611C10.9466 16.9238 10.9114 17.0088 10.9114 17.0974C10.9114 20.1546 13.3986 22.6418 16.4557 22.6418C19.5128 22.6418 22 20.1546 22 17.0974C22 17.0088 21.9648 16.9237 21.9021 16.8611ZM16.1325 17.2335C16.1862 17.3538 16.3056 17.4317 16.4379 17.4317H16.4736C16.6058 17.4317 16.7253 17.3538 16.7789 17.2334C17.4006 16.662 18.2022 16.349 19.0518 16.349C19.8168 16.349 20.5425 16.6035 21.1333 17.0712C18.4857 19.4998 14.4018 19.5095 11.743 17.0996C13.0253 16.0588 14.9013 16.103 16.1325 17.2335ZM16.4556 21.9732C14.0384 21.9732 12.0268 20.2051 11.6453 17.8943C13.036 19.01 14.7292 19.5683 16.4227 19.5683C18.1471 19.5683 19.8712 18.9896 21.2759 17.8328C20.9203 20.1737 18.8943 21.9732 16.4556 21.9732Z" fill="#E47B9E"/>
<path d="M8.43418 9.92465C8.33289 9.86441 8.20726 9.86197 8.10371 9.91822C8.04431 9.95049 6.63123 10.7272 5.06299 12.35C3.61533 13.8479 1.7642 16.3785 1.16635 19.9284C1.05034 20.6172 1.24286 21.3186 1.69465 21.8529C2.14768 22.3886 2.80972 22.6958 3.51103 22.6958H6.53455C7.67209 22.6958 8.59757 21.7704 8.59757 20.6328V10.2119C8.59761 10.0941 8.53551 9.98493 8.43418 9.92465ZM7.92906 20.6328C7.92906 21.4017 7.3035 22.0273 6.53459 22.0273H3.51107C3.00684 22.0273 2.53085 21.8063 2.20513 21.4212C1.88065 21.0375 1.74235 20.5339 1.82568 20.0395C2.39339 16.6685 4.15188 14.2593 5.52711 12.8318C6.48313 11.8395 7.39243 11.1696 7.92906 10.8127V20.6328Z" fill="#E47B9E"/>
<path d="M5.00076 19.8389C4.1462 19.8389 3.28394 20.093 3.28394 20.6607C3.28394 20.8453 3.43359 20.9949 3.61821 20.9949C3.782 20.9949 3.91831 20.8771 3.9469 20.7216C4.04589 20.641 4.42666 20.5074 5.00076 20.5074C5.57485 20.5074 5.95558 20.641 6.05461 20.7216C6.08324 20.8771 6.21951 20.9949 6.3833 20.9949C6.56792 20.9949 6.71758 20.8453 6.71758 20.6607C6.71758 20.093 5.85526 19.8389 5.00076 19.8389Z" fill="#E47B9E"/>
<path d="M11.7842 5.22351C11.702 5.10613 10.1687 2.94745 7.98721 1.97467L8.56644 0.730524C8.64437 0.563186 8.57185 0.364331 8.40447 0.286447C8.23717 0.208518 8.03832 0.281039 7.96039 0.448421L7.36099 1.73606C7.05495 1.6396 6.73867 1.56987 6.4141 1.53392V0.334277C6.4141 0.149651 6.26445 0 6.07983 0C5.8952 0 5.74555 0.149651 5.74555 0.334277V1.50994C5.40892 1.52351 5.08028 1.57493 4.76165 1.65653L4.19921 0.448377C4.12129 0.280995 3.92247 0.208518 3.75514 0.286403C3.58775 0.364331 3.51528 0.563142 3.59316 0.730479L4.12102 1.86434C1.80032 2.77227 0.145828 5.10143 0.0604078 5.22351C-0.0201359 5.33859 -0.0201359 5.49178 0.0604078 5.60686C0.166617 5.75868 2.69911 9.32433 5.92233 9.32433C9.1455 9.32433 11.678 5.75859 11.7842 5.60681C11.8647 5.49174 11.8647 5.33859 11.7842 5.22351ZM4.12306 2.59052C4.68718 2.33679 5.29354 2.17455 5.92228 2.17455C6.5513 2.17455 7.15832 2.33759 7.72333 2.59238C8.18239 3.06408 8.43528 3.68449 8.43528 4.34405C8.43528 5.0153 8.17387 5.64635 7.69926 6.12102C7.22464 6.59564 6.59354 6.85708 5.92224 6.85708C5.25098 6.85708 4.61989 6.59568 4.14527 6.12102C3.17316 5.14886 3.16611 3.57212 4.12306 2.59052ZM5.92237 8.65586C3.44888 8.65586 1.31369 6.13773 0.752011 5.41505C1.06209 5.01517 1.85263 4.06686 2.91619 3.29879C2.80116 3.63054 2.74074 3.98264 2.74074 4.34409C2.74074 5.1939 3.07169 5.99287 3.6726 6.59377C4.27351 7.19473 5.07247 7.52564 5.92228 7.52564C6.77209 7.52564 7.5711 7.19468 8.17197 6.59377C8.77292 5.99287 9.10383 5.19394 9.10383 4.34409C9.10383 3.98344 9.04363 3.63218 8.92913 3.3011C9.99141 4.06881 10.782 5.01575 11.0926 5.41523C10.5305 6.13839 8.39547 8.65586 5.92237 8.65586Z" fill="#E47B9E"/>
<path d="M5.92217 2.67664C5.07591 2.67664 4.38745 3.36509 4.38745 4.21136C4.38745 5.05762 5.07591 5.74608 5.92217 5.74608C6.76844 5.74608 7.45689 5.05762 7.45689 4.21136C7.45689 3.36509 6.76844 2.67664 5.92217 2.67664ZM5.92217 5.07752C5.44458 5.07752 5.056 4.68894 5.056 4.21136C5.056 3.73377 5.44458 3.34519 5.92217 3.34519C6.39976 3.34519 6.78834 3.73377 6.78834 4.21136C6.78834 4.68894 6.3998 5.07752 5.92217 5.07752Z" fill="#E47B9E"/>
<path d="M17.6404 7.53125C16.7942 7.53125 16.1057 8.21971 16.1057 9.06597C16.1057 9.91223 16.7942 10.6007 17.6404 10.6007C18.4867 10.6007 19.1752 9.91223 19.1752 9.06597C19.1752 8.21971 18.4867 7.53125 17.6404 7.53125ZM17.6404 9.93214C17.1628 9.93214 16.7743 9.54356 16.7743 9.06597C16.7743 8.58834 17.1628 8.1998 17.6404 8.1998C18.118 8.1998 18.5066 8.58838 18.5066 9.06597C18.5066 9.5436 18.1181 9.93214 17.6404 9.93214Z" fill="#E47B9E"/>
<path d="M21.5176 9.55781C21.7023 9.55781 21.8519 9.40816 21.8519 9.22354C21.8519 9.03891 21.7023 8.88926 21.5176 8.88926H20.342C20.3284 8.55263 20.277 8.22399 20.1954 7.9054L21.4035 7.34297C21.5709 7.26504 21.6434 7.06623 21.5655 6.89889C21.4876 6.73155 21.2888 6.65908 21.1214 6.73692L19.9876 7.26473C19.0796 4.94403 16.7505 3.28954 16.6284 3.20412C16.5134 3.12353 16.3602 3.12353 16.2451 3.20412C16.0933 3.31033 12.5276 5.84282 12.5276 9.06604C12.5276 12.2893 16.0933 14.8217 16.2451 14.928C16.3026 14.9683 16.3697 14.9883 16.4367 14.9883C16.5038 14.9883 16.5708 14.9682 16.6284 14.928C16.7457 14.8458 18.9044 13.3125 19.8772 11.131L21.1214 11.7102C21.1671 11.7315 21.2151 11.7416 21.2623 11.7416C21.3882 11.7416 21.5089 11.67 21.5655 11.5483C21.6434 11.3809 21.5709 11.1821 21.4035 11.1042L20.1159 10.5048C20.2123 10.1987 20.282 9.88242 20.318 9.5579H21.5176V9.55781ZM16.4366 14.2364C15.7134 13.6753 13.1961 11.5438 13.1961 9.06599C13.1961 6.5925 15.7143 4.45731 16.437 3.89563C16.8368 4.20584 17.7851 4.99638 18.5532 6.05999C18.2214 5.94491 17.8693 5.88449 17.5078 5.88449C16.658 5.88449 15.8591 6.21544 15.2581 6.81635C14.6572 7.41726 14.3263 8.21618 14.3263 9.06604C14.3263 9.91589 14.6572 10.7148 15.2581 11.3157C15.8591 11.9167 16.658 12.2476 17.5078 12.2476C17.8685 12.2476 18.2197 12.1874 18.5508 12.0729C17.783 13.1352 16.8359 13.9259 16.4366 14.2364ZM19.2595 10.867C18.7878 11.3261 18.1673 11.579 17.5077 11.579C16.8365 11.579 16.2054 11.3176 15.7308 10.843C15.2561 10.3684 14.9947 9.7373 14.9947 9.06604C14.9947 8.39483 15.2561 7.76373 15.7308 7.28907C16.2054 6.81445 16.8365 6.55305 17.5077 6.55305C18.1682 6.55305 18.7893 6.80656 19.2613 7.26677C19.515 7.83084 19.6773 8.4372 19.6773 9.06595C19.6774 9.69501 19.5143 10.302 19.2595 10.867Z" fill="#E47B9E"/>
<path d="M7.4116 12.923C7.31111 12.7681 7.10405 12.7241 6.94921 12.8245C4.597 14.3508 3.43813 17.5582 3.38995 17.694C3.3282 17.868 3.4192 18.0591 3.59319 18.1208C3.63016 18.1339 3.66784 18.1401 3.70499 18.1401C3.84253 18.1401 3.97144 18.0546 4.02002 17.9176C4.03106 17.8864 5.14914 14.7895 7.31314 13.3854C7.46803 13.2849 7.51209 13.0778 7.4116 12.923Z" fill="#E47B9E"/>
<path d="M20.8427 1.86686C19.6453 0.669432 18.0509 0.0100098 16.3531 0.0100098C14.6553 0.0100098 13.061 0.669432 11.8635 1.86682C11.6672 2.06314 11.5591 2.32415 11.5591 2.60182C11.5591 2.87949 11.6672 3.14049 11.8635 3.33682C12.2689 3.74211 12.9283 3.74202 13.3335 3.33677C14.9985 1.67182 17.7077 1.67182 19.3727 3.33677C19.569 3.5331 19.83 3.64122 20.1077 3.64122C20.3853 3.64122 20.6463 3.5331 20.8427 3.33677C21.248 2.93153 21.248 2.27211 20.8427 1.86686ZM20.37 2.86411C20.2999 2.93414 20.2067 2.97275 20.1077 2.97275C20.0087 2.97275 19.9155 2.93414 19.8455 2.86411C18.8826 1.90126 17.6179 1.4199 16.3531 1.4199C15.0884 1.4199 13.8236 1.9013 12.8608 2.86411C12.7162 3.0087 12.4809 3.0087 12.3363 2.86411C12.2662 2.79402 12.2276 2.70089 12.2276 2.60186C12.2276 2.50283 12.2662 2.40961 12.3362 2.33962C13.4073 1.26848 14.8339 0.678607 16.3531 0.678607C17.8723 0.678607 19.2988 1.26848 20.37 2.33962C20.44 2.4097 20.4786 2.50283 20.4786 2.60186C20.4787 2.70093 20.44 2.79407 20.37 2.86411Z" fill="#E47B9E"/>
<path d="M11.2319 10.9813C11.1691 10.8944 11.0684 10.843 10.9612 10.843C10.854 10.843 10.7533 10.8944 10.6904 10.9813C10.4569 11.3039 9.69482 12.4016 9.69482 12.9797C9.69482 13.678 10.2629 14.2461 10.9612 14.2461C11.6594 14.2461 12.2275 13.678 12.2275 12.9797C12.2275 12.4016 11.4655 11.3039 11.2319 10.9813ZM10.9611 13.5775C10.6315 13.5775 10.3633 13.3093 10.3633 12.9797C10.3633 12.7833 10.6402 12.2629 10.961 11.769C11.2826 12.2655 11.5589 12.789 11.5589 12.9797C11.559 13.3093 11.2908 13.5775 10.9611 13.5775Z" fill="#E47B9E"/>
</svg>
