<svg width="313" height="301" viewBox="0 0 313 301" fill="none" xmlns="http://www.w3.org/2000/svg">
<path d="M109.417 299.981C107.231 296.631 103.172 289.726 100.459 284.322C96.3059 276.049 93.9244 267.137 92.1202 258.092C87.8565 236.718 87.0906 214.945 89.0219 193.257C90.8572 172.648 94.8769 152.335 100.9 132.537C108.366 107.999 118.476 83.984 133.102 62.8088C141.892 50.0822 152.179 37.0361 164.346 27.3138C171.832 21.3315 181.736 17.2746 191.448 19.1714C210.625 22.9169 222.849 45.3583 227.064 62.5369C230.55 76.7387 231.304 91.976 231.381 106.542C231.487 126.583 227.917 146.41 222.989 165.775C218.94 181.687 214.005 197.574 207.117 212.51C202.826 221.815 197.278 230.337 189.232 236.811C186.592 238.935 182.179 242.576 178.378 240.495C171.934 236.967 169.574 225.878 169.12 219.479C168.209 206.657 171.276 193.573 174.993 181.43C178.969 168.443 184.201 155.991 192.582 145.189C197.137 139.319 203.272 132.917 209.826 129.186C214.91 126.292 223.013 124.12 228.806 125.983C233.305 127.43 238.22 130.562 241.126 134.02C246.832 140.814 248.961 149.857 249.673 158.716C250.753 172.155 249.206 188.302 240.439 199.205C235.874 204.884 228.472 211.245 221.28 205.789C216.41 202.095 213.201 195.971 211.561 190.206C207.913 177.388 209.923 163.599 213.993 151.161C217.775 139.601 223.146 127.992 230.477 118.23C235.941 110.955 244.38 102.918 253.254 100.011C259.182 98.0695 265.812 99.8233 270.146 104.475C284.55 119.935 279.731 142.858 277.589 163.362" stroke="black" stroke-linecap="round" stroke-linejoin="round"/>
</svg>
