<svg width="1782" height="1204" viewBox="0 0 1782 1204" fill="none" xmlns="http://www.w3.org/2000/svg">
<path d="M1 574.695C122 389.513 411.732 189.774 601.394 122.155C707.797 84.2203 824.707 69.867 915.972 150.627C957.986 187.805 982.88 235.231 995.138 289.514C1015.79 380.954 1021.8 481.776 1008.1 574.695C998.313 641.105 969.554 700.357 934.491 756.868C860.409 876.262 765.86 984.935 650.698 1066.35C561.336 1129.53 470.959 1176.49 364.5 1195.5C298.548 1207.28 203.642 1209.11 140.752 1173.53C57.0501 1126.18 29.2011 1021.29 26.6334 931.634C22.1757 775.984 74 607.5 164.826 495.53C255.652 383.559 364.5 289.514 453.711 235.348C542.921 181.182 750.172 71.8124 912.037 32.3419C1015.21 7.18309 1126.06 -2.86063 1232.17 1.55526C1330.17 5.63366 1425.23 33.016 1495.59 104.794C1577.23 188.068 1564.03 301.442 1503 389.513C1405.2 530.649 1277.54 641.827 1129.16 727.471C1075.89 758.22 1017.38 791.627 956.249 804.09C943.915 806.605 906.19 814.792 897.685 798.997C889.008 782.882 901.827 750.769 907.639 737.193C937.415 667.637 991.329 605.362 1045.6 553.862C1178.62 427.639 1355.68 327.988 1541.43 319.143C1620.79 315.364 1785.71 324.836 1780.77 437.197C1779.04 476.545 1745.18 514.285 1720.59 541.825C1669.03 599.576 1600.59 641.289 1539.11 687.193" stroke="black" stroke-linecap="round" stroke-linejoin="round"/>
</svg>
