<svg width="366" height="315" viewBox="0 0 366 315" fill="none" xmlns="http://www.w3.org/2000/svg">
<path d="M1 148.545C2.66432 115.466 18.545 89.047 42.4397 66.5262C65.262 45.0162 91.9912 27.6271 120.819 15.3037C142.741 5.93264 166.7 -0.577398 190.746 1.33399C207.684 2.68032 220.684 8.71569 230.934 22.856C247.933 46.3073 256.821 79.2454 251.36 107.927C248.284 124.082 238.713 144.773 230.855 158.562C220.652 176.467 202.44 201.975 189.377 217.728C165.546 246.466 136.898 272.786 104.228 291.216C90.092 299.191 72.6584 306.846 55.9399 304.912C30.8262 302.007 19.455 278.344 20.3307 255.138C21.4275 226.071 41.0059 202.593 60.7921 183.254C77.7067 166.722 96.4589 153.213 118.471 144.397C136.383 137.223 161.025 128.927 178.733 141.501C206.055 160.903 188.731 201.893 177.676 224.928C164.587 252.205 146.859 276.026 123.519 295.208C114.372 302.725 105.751 308.921 94.21 311.838C88.5272 313.275 78.9929 316.099 74.0184 310.86C62.1233 298.333 74.2401 269.435 80.0446 258.033C104.655 209.692 148.003 170.4 191.568 139.388C221.467 118.104 254.796 101.942 291.274 96.344C306.046 94.077 324.643 92.2604 338.583 99.3571C354.28 107.348 359.131 127.204 357.131 143.379C354.038 168.397 337.241 190.296 320.504 208.024C299.581 230.187 274.833 249.858 248.034 264.451C235.121 271.482 196.011 288.955 195.324 259.99C194.8 237.873 210.745 216.738 224.751 201.372C245.974 178.088 272.621 157.885 302.387 146.98C316.575 141.781 341.234 134.559 356.075 142.675C365.504 147.832 365.651 161.028 363.196 169.91C357.756 189.594 342.912 204.958 327.665 217.65C305.617 236.004 280.776 250.121 256.682 265.468" stroke="black" stroke-linecap="round" stroke-linejoin="round"/>
</svg>
